<svg xmlns="http://www.w3.org/2000/svg" width="512" height="512" viewBox="0 0 512 512">
  <defs>
    <style>
      .cls-1 {
        fill-rule: evenodd;
      }
    </style>
  </defs>
  <path class="cls-1" d="M236,484s17-5,18-13c0,0-71-71-1-138,0,0,101.5-79.5,135,62,0,0-40.212-102.26-114-42-60,49,42,130.8,64,132C338,485,274.825,504.725,236,484Zm-13-50s15.347,33.655,25,38c0,0-52.453,26.455-86,13C162,485,222.6,478.2,223,434Zm-4-52s1.3-22.761,15-33c0,0-62.7-50.761-125,15C109,364,199.333,328.667,219,382Zm-20-55s-17.037-3.428-25-1c0,0,14.63-77.761-56-70C118,256,193.667,228.333,199,327Zm136-19s15.963,6.572,18,11,9.3-28.761,48-21C401,298,378.333,280,335,308Zm-53,3s-17.37,4.239-24,12c0,0-24.7-46.428-3-85s-3.037-65.428-22-70c0,0,59.3,6.905,42,70C275,238,253.333,278.667,282,311Zm-8-31s-2.7-11.1-1-17,49.3-12.095,49-40C322,223,328.333,263,274,280Zm-83-3s-10.037-14.428-12-15,23.63-15.428,10-56C189,206,216.667,237,191,277ZM304.919,101.382c-5.786,11.454-11.049,15.244-14.21,16.475a63.265,63.265,0,0,1-5.032,16.876c-1.786,3.663-13.021,2.689-6.693-2.058,2.99-2.242,5.094-8.07,6.321-14.715-3.594-1.054-10.979-4.638-19.368-16.918C250.876,79,273.823,47.863,287.629,32.983,286.235,60.358,320.533,70.466,304.919,101.382Zm-83.571,80.337c-0.751,6.34-2.89,9.489-4.4,10.967a22.7,22.7,0,0,1,.865,8.244c-0.2,2.008-6.76,5.148-4.231,1.288,1.2-1.824,1.1-4.786.338-7.8-2.26.711-7.216,1.612-14.647-.606-13.342-3.983-7.224-23.481-2.7-33.69C201.8,171.377,223.375,164.608,221.348,181.719Zm17,115c-0.751,6.34-2.89,9.489-4.4,10.967a22.7,22.7,0,0,1,.865,8.244c-0.2,2.008-6.76,5.148-4.231,1.288,1.2-1.824,1.1-4.786.338-7.8-2.26.711-7.216,1.612-14.647-.606-13.342-3.983-7.224-23.481-2.7-33.69C218.8,286.377,240.375,279.608,238.348,296.719Zm-25.7-65c0.751,6.34,2.89,9.489,4.4,10.967a22.7,22.7,0,0,0-.865,8.244c0.2,2.008,6.76,5.148,4.231,1.288-1.2-1.824-1.1-4.786-.338-7.8,2.26,0.711,7.216,1.612,14.647-.606,13.342-3.983,7.224-23.481,2.7-33.69C232.205,221.377,210.625,214.608,212.652,231.719Zm150,13c0.751,6.34,2.89,9.489,4.4,10.967a22.7,22.7,0,0,0-.865,8.244c0.2,2.008,6.76,5.148,4.231,1.288-1.2-1.824-1.1-4.786-.338-7.8,2.26,0.711,7.216,1.612,14.647-.606,13.342-3.983,7.224-23.481,2.7-33.69C382.205,234.377,360.625,227.608,362.652,244.719Zm-180.3-28c-0.751,6.34-2.89,9.489-4.4,10.967a22.7,22.7,0,0,1,.865,8.244c-0.2,2.008-6.76,5.148-4.231,1.288,1.2-1.824,1.1-4.786.338-7.8-2.26.711-7.216,1.612-14.647-.606-13.342-3.983-7.224-23.481-2.7-33.69C162.795,206.377,184.375,199.608,182.348,216.719Zm-24,76c-0.751,6.34-2.89,9.489-4.4,10.967a22.7,22.7,0,0,1,.865,8.244c-0.2,2.008-6.76,5.148-4.231,1.288,1.2-1.824,1.1-4.786.338-7.8-2.26.711-7.216,1.612-14.647-.606-13.342-3.983-7.224-23.481-2.7-33.69C138.795,282.377,160.375,275.608,158.348,292.719Zm156.3-16c0.751,6.34,2.89,9.489,4.4,10.967a22.7,22.7,0,0,0-.865,8.244c0.2,2.008,6.76,5.148,4.231,1.288-1.2-1.824-1.1-4.786-.338-7.8,2.26,0.711,7.216,1.612,14.647-.606,13.342-3.983,7.224-23.481,2.7-33.69C334.205,266.377,312.625,259.608,314.652,276.719Zm8-83c0.751,6.34,2.89,9.489,4.4,10.967a22.7,22.7,0,0,0-.865,8.244c0.2,2.008,6.76,5.148,4.231,1.288-1.2-1.824-1.1-4.786-.338-7.8,2.26,0.711,7.216,1.612,14.647-.606,13.342-3.983,7.224-23.481,2.7-33.69C342.205,183.377,320.625,176.608,322.652,193.719Zm-50-32c0.751,6.34,2.89,9.489,4.4,10.967a22.7,22.7,0,0,0-.865,8.244c0.2,2.008,6.76,5.148,4.231,1.288-1.2-1.824-1.1-4.786-.338-7.8,2.26,0.711,7.216,1.612,14.647-.606,13.342-3.983,7.224-23.481,2.7-33.69C292.205,151.377,270.625,144.608,272.652,161.719Zm98.239-26.579c-10.738,7.027-17.191,7.678-20.544,7.163a63.23,63.23,0,0,1-12.795,12.1c-3.379,2.28-12.622-4.182-4.769-5.128,3.711-.447,8.447-4.443,12.832-9.584-2.585-2.71-7.188-9.506-8.313-24.335-2.021-26.622,33.419-42.111,52.815-48.1C375.222,90.271,399.871,116.173,370.891,135.14Zm43.476,69.427c-12.19,4.009-18.591,2.967-21.7,1.6a63.231,63.231,0,0,1-15.491,8.375c-3.854,1.328-11.109-7.306-3.279-6.188,3.7,0.529,9.309-2.1,14.876-5.935-1.8-3.287-4.484-11.043-1.732-25.658,4.938-26.238,43.179-32.027,63.463-32.787C430.164,162.348,447.269,193.747,414.367,204.567ZM433.7,282.72c-12.812.717-18.726-1.946-21.372-4.069a63.217,63.217,0,0,1-17.131,4.081c-4.066.285-8.839-9.932-1.565-6.826,3.437,1.469,9.536.376,15.9-1.883-0.884-3.64-1.472-11.827,4.968-25.232,11.561-24.066,50-19.76,69.787-15.244C459.883,246.027,468.279,280.784,433.7,282.72Zm-10.232,81.068c-9.216-8.93-11.269-15.082-11.5-18.466a63.253,63.253,0,0,1-14.616-9.823c-2.966-2.8,1.3-13.232,3.955-5.779,1.252,3.522,6.19,7.264,12.17,10.411,2.075-3.118,7.693-9.1,21.912-13.46,25.527-7.824,48.428,23.344,58.53,40.95C468.189,358.149,448.339,387.89,423.465,363.788ZM197.081,101.382c5.786,11.454,11.049,15.244,14.21,16.475a63.265,63.265,0,0,0,5.032,16.876c1.786,3.663,13.021,2.689,6.693-2.058-2.99-2.242-5.094-8.07-6.321-14.715,3.594-1.054,10.979-4.638,19.368-16.918C251.124,79,228.177,47.863,214.371,32.983,215.765,60.358,181.467,70.466,197.081,101.382ZM141.109,135.14c10.738,7.027,17.191,7.678,20.544,7.163a63.23,63.23,0,0,0,12.8,12.1c3.379,2.28,12.622-4.182,4.769-5.128-3.711-.447-8.447-4.443-12.832-9.584,2.585-2.71,7.188-9.506,8.313-24.335,2.021-26.622-33.419-42.111-52.815-48.1C136.778,90.271,112.129,116.173,141.109,135.14ZM97.633,204.567c12.19,4.009,18.591,2.967,21.7,1.6a63.231,63.231,0,0,0,15.491,8.375c3.854,1.328,11.109-7.306,3.279-6.188-3.7.529-9.309-2.1-14.876-5.935,1.8-3.287,4.484-11.043,1.732-25.658-4.938-26.238-43.179-32.027-63.463-32.787C81.836,162.348,64.731,193.747,97.633,204.567ZM78.3,282.72c12.813,0.717,18.726-1.946,21.373-4.069a63.209,63.209,0,0,0,17.13,4.081c4.066,0.285,8.839-9.932,1.565-6.826-3.437,1.469-9.536.376-15.9-1.883,0.884-3.64,1.472-11.827-4.968-25.232-11.561-24.066-50-19.76-69.787-15.244C52.117,246.027,43.721,280.784,78.3,282.72Zm10.232,81.068c9.216-8.93,11.269-15.082,11.5-18.466a63.253,63.253,0,0,0,14.616-9.823c2.966-2.8-1.305-13.232-3.955-5.779-1.252,3.522-6.19,7.264-12.17,10.411-2.075-3.118-7.693-9.1-21.912-13.46-25.526-7.824-48.428,23.344-58.529,40.95C43.811,358.149,63.661,387.89,88.535,363.788ZM365,368s-1.219,13.069-9,17c0,0,15.337,1.385,18-5A21.921,21.921,0,0,0,365,368Z"/>
</svg>
